<?xml version="1.0" encoding="utf-8"?>
<svg version="1.0" viewBox="0 0 570 440" preserveAspectRatio="xMidYMid meet" id="svg21" xmlns="http://www.w3.org/2000/svg">
  <defs id="defs1"/>
  <g fill="#000000" id="g8" style="" transform="matrix(10.618914, 0, 0, 10.618914, -5.793243, -36.008342)">
    <title>Ocarina</title>
    <path d="M 18.8 41.2 C 18.35 40.8 17.65 39.15 17.25 37.6 C 15.5 31.1 13.92 26.389 13.17 26.389 C 11.62 26.339 5.55 24.1 3.85 22.8 C 0.7 20.4 0.35 16.7 3 13.05 C 4.25 11.25 9.336 8.292 13.936 7.092 C 18.686 5.842 29.446 5.872 35.096 7.272 C 40.596 8.622 45.05 10.3 48.65 12.1 C 55.65 15.6 55.2 18.1 46.9 22 C 43.1 23.75 33.8 26.25 28.9 26.75 L 25.6 27.1 L 24.55 30 C 23.95 31.6 23.05 34.65 22.5 36.75 C 21.2 41.9 20.4 42.85 18.8 41.2 Z M 21.7 36.65 C 22.05 34.95 22.59 33.45 22.44 33.3 C 22.29 33.15 20.753 33.117 19.403 33.117 C 17.303 33.117 16.782 32.928 17.032 33.678 C 17.182 34.128 17.7 35.75 18 37 C 18.35 38.25 18.85 39.65 19.1 40.2 C 19.85 41.6 20.85 40.3 21.7 36.65 Z M 22.823 32.251 C 23.523 31.801 23.75 30.15 24.2 28.4 L 24.5 27 L 19.753 27.063 L 14.9 27 L 15.25 28.4 C 16.076 30.941 15.479 29.608 16.357 31.69 C 16.938 33.068 21.35 32.35 21.5 32.4 C 21.65 32.45 22.523 32.451 22.823 32.251 Z M 33.2 25.2 C 43.9 23.15 52.95 18.9 52.4 16.2 C 52.05 14.25 45.2 11 36.7 8.7 C 30.3 7 19.25 6.7 14.05 8.2 C 6.75 10.2 2.7 13.4 2.15 17.5 C 1.9 19.35 2.372 20.276 4.374 21.962 C 9.575 26.343 20.85 27.55 33.2 25.2 Z" id="path1" style="stroke-linejoin: round; stroke-linecap: round; stroke-width: 0.941716px; vector-effect: non-scaling-stroke;">
      <title>Outline</title>
    </path>
    <path d="M 35.491 19.666 C 35.491 20.497 35.114 21.34 34.573 21.881 C 34.032 22.422 33.189 22.799 32.358 22.799 C 31.527 22.799 30.684 22.422 30.143 21.881 C 29.602 21.34 29.225 20.497 29.225 19.666 C 29.225 18.835 29.602 17.992 30.143 17.451 C 30.684 16.91 31.527 16.533 32.358 16.533 C 33.189 16.533 34.032 16.91 34.573 17.451 C 35.114 17.992 35.491 18.835 35.491 19.666 Z" style="">
      <title>Hole1</title>
    </path>
    <path d="M 41.773 15.149 C 41.773 15.98 41.396 16.823 40.855 17.364 C 40.314 17.905 39.471 18.282 38.64 18.282 C 37.809 18.282 36.966 17.905 36.425 17.364 C 35.884 16.823 35.507 15.98 35.507 15.149 C 35.507 14.318 35.884 13.475 36.425 12.934 C 36.966 12.393 37.809 12.016 38.64 12.016 C 39.471 12.016 40.314 12.393 40.855 12.934 C 41.396 13.475 41.773 14.318 41.773 15.149 Z" style="">
      <title>Hole2</title>
    </path>
    <path d="M 48.522 17.479 C 48.522 18.31 48.145 19.153 47.604 19.694 C 47.063 20.235 46.22 20.612 45.389 20.612 C 44.558 20.612 43.715 20.235 43.174 19.694 C 42.633 19.153 42.256 18.31 42.256 17.479 C 42.256 16.648 42.633 15.805 43.174 15.264 C 43.715 14.723 44.558 14.346 45.389 14.346 C 46.22 14.346 47.063 14.723 47.604 15.264 C 48.145 15.805 48.522 16.648 48.522 17.479 Z M 46.938 15.93 C 46.516 15.507 46.028 15.288 45.389 15.288 C 44.75 15.288 44.262 15.507 43.84 15.93 C 43.417 16.352 43.198 16.84 43.198 17.479 C 43.198 18.118 47.58 18.118 47.58 17.479 C 47.58 16.84 47.361 16.352 46.938 15.93 Z" style="">
      <title>Hole3</title>
    </path>
    <path d="M 45.056 32.133 C 45.056 33.26 44.559 34.371 43.824 35.106 C 43.089 35.841 41.978 36.338 40.851 36.338 C 39.724 36.338 38.613 35.841 37.878 35.106 C 37.143 34.371 36.646 33.26 36.646 32.133 C 36.646 31.006 37.143 29.895 37.878 29.16 C 38.613 28.425 39.724 27.928 40.851 27.928 C 41.978 27.928 43.089 28.425 43.824 29.16 C 44.559 29.895 45.056 31.006 45.056 32.133 Z" style="">
      <title>Hole4</title>
    </path>
    <path d="M 15.585 18.803 C 15.585 19.634 15.208 20.477 14.667 21.018 C 14.126 21.559 13.283 21.936 12.452 21.936 C 11.621 21.936 10.778 21.559 10.237 21.018 C 9.696 20.477 9.319 19.634 9.319 18.803 C 9.319 17.972 9.696 17.129 10.237 16.588 C 10.778 16.047 11.621 15.67 12.452 15.67 C 13.283 15.67 14.126 16.047 14.667 16.588 C 15.208 17.129 15.585 17.972 15.585 18.803 Z" style="">
      <title>Hole5</title>
    </path>
    <path d="M 21.679 12.407 C 21.679 13.238 21.302 14.081 20.761 14.622 C 20.22 15.163 19.377 15.54 18.546 15.54 C 17.715 15.54 16.872 15.163 16.331 14.622 C 15.79 14.081 15.413 13.238 15.413 12.407 C 15.413 11.576 15.79 10.733 16.331 10.192 C 16.872 9.651 17.715 9.274 18.546 9.274 C 19.377 9.274 20.22 9.651 20.761 10.192 C 21.302 10.733 21.679 11.576 21.679 12.407 Z" style="">
      <title>Hole6</title>
    </path>
    <path d="M 12.177 31.33 C 12.177 32.161 11.8 33.004 11.259 33.545 C 10.718 34.086 9.875 34.463 9.044 34.463 C 8.213 34.463 7.37 34.086 6.829 33.545 C 6.288 33.004 5.911 32.161 5.911 31.33 C 5.911 30.499 6.288 29.656 6.829 29.115 C 7.37 28.574 8.213 28.197 9.044 28.197 C 9.875 28.197 10.718 28.574 11.259 29.115 C 11.8 29.656 12.177 30.499 12.177 31.33 Z" style="">
      <title>Hole7</title>
    </path>
  </g>
</svg>