<?xml version="1.0" encoding="utf-8"?>
<svg version="1.0" viewBox="0 0 570 440" preserveAspectRatio="xMidYMid meet" id="svg21" xmlns="http://www.w3.org/2000/svg">
  <defs id="defs1"/>
  <g fill="#000000" id="g8" style="" transform="matrix(10.618914, 0, 0, 10.618914, -5.793243, -36.008342)">
    <title>Ocarina</title>
    <path d="M 18.8 41.2 C 18.35 40.8 17.65 39.15 17.25 37.6 C 15.5 31.1 13.92 26.389 13.17 26.389 C 11.62 26.339 5.55 24.1 3.85 22.8 C 0.7 20.4 0.35 16.7 3 13.05 C 4.25 11.25 9.336 8.292 13.936 7.092 C 18.686 5.842 29.446 5.872 35.096 7.272 C 40.596 8.622 45.05 10.3 48.65 12.1 C 55.65 15.6 55.2 18.1 46.9 22 C 43.1 23.75 33.8 26.25 28.9 26.75 L 25.6 27.1 L 24.55 30 C 23.95 31.6 23.05 34.65 22.5 36.75 C 21.2 41.9 20.4 42.85 18.8 41.2 Z M 21.7 36.65 C 22.05 34.95 22.59 33.45 22.44 33.3 C 22.29 33.15 20.753 33.117 19.403 33.117 C 17.303 33.117 16.782 32.928 17.032 33.678 C 17.182 34.128 17.7 35.75 18 37 C 18.35 38.25 18.85 39.65 19.1 40.2 C 19.85 41.6 20.85 40.3 21.7 36.65 Z M 22.823 32.251 C 23.523 31.801 23.75 30.15 24.2 28.4 L 24.5 27 L 19.753 27.063 L 14.9 27 L 15.25 28.4 C 16.076 30.941 15.479 29.608 16.357 31.69 C 16.938 33.068 21.35 32.35 21.5 32.4 C 21.65 32.45 22.523 32.451 22.823 32.251 Z M 33.2 25.2 C 43.9 23.15 52.95 18.9 52.4 16.2 C 52.05 14.25 45.2 11 36.7 8.7 C 30.3 7 19.25 6.7 14.05 8.2 C 6.75 10.2 2.7 13.4 2.15 17.5 C 1.9 19.35 2.372 20.276 4.374 21.962 C 9.575 26.343 20.85 27.55 33.2 25.2 Z" id="path1" style="stroke-linejoin: round; stroke-linecap: round; stroke-width: 0.941716px; vector-effect: non-scaling-stroke;">
      <title>Outline</title>
    </path>
    <path d="M 17.542 12.426 Q 18.943 12.426 19.611 12.934 Q 20.278 13.443 20.278 14.48 Q 20.278 14.95 20.1 15.301 Q 19.923 15.651 19.63 15.896 Q 19.337 16.141 19.001 16.294 L 21.017 19.28 L 19.404 19.28 L 17.772 16.65 L 16.995 16.65 L 16.995 19.28 L 15.545 19.28 L 15.545 12.426 Z M 17.436 13.616 L 16.995 13.616 L 16.995 15.469 L 17.465 15.469 Q 18.185 15.469 18.497 15.229 Q 18.809 14.989 18.809 14.518 Q 18.809 14.029 18.473 13.822 Q 18.137 13.616 17.436 13.616 Z M 24.521 13.942 Q 25.606 13.942 26.24 14.562 Q 26.873 15.181 26.873 16.323 L 26.873 17.014 L 23.494 17.014 Q 23.513 17.619 23.854 17.965 Q 24.195 18.31 24.8 18.31 Q 25.299 18.31 25.716 18.21 Q 26.134 18.109 26.576 17.898 L 26.576 19.002 Q 26.182 19.194 25.76 19.285 Q 25.337 19.376 24.732 19.376 Q 23.945 19.376 23.34 19.083 Q 22.736 18.79 22.39 18.2 Q 22.044 17.61 22.044 16.698 Q 22.044 15.786 22.356 15.171 Q 22.668 14.557 23.225 14.25 Q 23.782 13.942 24.521 13.942 Z M 24.531 14.96 Q 24.108 14.96 23.84 15.229 Q 23.571 15.498 23.523 16.064 L 25.529 16.064 Q 25.52 15.594 25.275 15.277 Q 25.03 14.96 24.531 14.96 Z M 31.357 17.725 Q 31.357 18.522 30.795 18.949 Q 30.234 19.376 29.12 19.376 Q 28.573 19.376 28.179 19.304 Q 27.786 19.232 27.392 19.069 L 27.392 17.888 Q 27.815 18.08 28.304 18.205 Q 28.794 18.33 29.168 18.33 Q 29.581 18.33 29.763 18.205 Q 29.946 18.08 29.946 17.878 Q 29.946 17.744 29.874 17.638 Q 29.802 17.533 29.562 17.398 Q 29.322 17.264 28.813 17.053 Q 28.314 16.842 28.002 16.635 Q 27.69 16.429 27.536 16.136 Q 27.383 15.843 27.383 15.402 Q 27.383 14.672 27.949 14.307 Q 28.515 13.942 29.456 13.942 Q 29.946 13.942 30.387 14.038 Q 30.829 14.134 31.299 14.355 L 30.867 15.382 Q 30.483 15.219 30.138 15.109 Q 29.792 14.998 29.437 14.998 Q 28.803 14.998 28.803 15.344 Q 28.803 15.469 28.885 15.57 Q 28.967 15.67 29.202 15.786 Q 29.437 15.901 29.898 16.093 Q 30.349 16.275 30.675 16.472 Q 31.002 16.669 31.179 16.966 Q 31.357 17.264 31.357 17.725 Z M 35.247 18.234 Q 35.487 18.234 35.708 18.19 Q 35.929 18.147 36.15 18.07 L 36.15 19.136 Q 35.919 19.242 35.578 19.309 Q 35.238 19.376 34.834 19.376 Q 34.364 19.376 33.994 19.222 Q 33.625 19.069 33.409 18.694 Q 33.193 18.32 33.193 17.638 L 33.193 15.114 L 32.511 15.114 L 32.511 14.509 L 33.298 14.029 L 33.711 12.925 L 34.623 12.925 L 34.623 14.038 L 36.092 14.038 L 36.092 15.114 L 34.623 15.114 L 34.623 17.638 Q 34.623 17.936 34.796 18.085 Q 34.969 18.234 35.247 18.234 Z"/>
  </g>
</svg>